<svg data-v-fde0c5aa="" xmlns="http://www.w3.org/2000/svg" viewBox="0 0 300 300" class="iconLeft"><!----><defs data-v-fde0c5aa=""><!----></defs><rect data-v-fde0c5aa="" fill="#EDF2F3" x="0" y="0" width="300px" height="300px" class="logo-background-square"></rect><defs data-v-fde0c5aa=""><!----></defs><g data-v-fde0c5aa="" id="8964f7dd-92e4-4bfc-a519-09a7e33cb8bc" fill="#12262A" transform="matrix(2.5768400873965627,0,0,2.5768400873965627,104.89999829437312,131.78174090772058)"><path d="M6.23 5.68C6.23 4.05 5.50 3.33 3.68 3.33C2.34 3.33 0.84 3.74 0.84 3.74L0.90 5.04C0.90 5.04 2.60 4.93 3.53 4.93C4.09 4.93 4.35 5.08 4.35 5.68L4.35 6.12L2.86 6.23C1.32 6.34 0.41 6.79 0.41 8.37C0.41 9.86 1.11 10.67 2.58 10.67C3.63 10.67 4.63 10.18 4.63 10.18C5.22 10.57 5.70 10.67 6.64 10.67L6.69 9.25C6.31 9.18 6.26 9.02 6.23 8.60ZM4.35 7.42L4.35 8.92C4.35 8.92 3.58 9.14 2.98 9.14C2.48 9.14 2.30 8.81 2.30 8.32C2.30 7.81 2.59 7.57 3.08 7.53ZM13.97 0.70L12.10 0.70L12.10 3.53C12.10 3.53 11.10 3.33 10.58 3.33C8.68 3.33 7.69 4.41 7.69 6.97C7.69 9.44 8.30 10.67 10.42 10.67C11.13 10.67 12.11 10.21 12.11 10.21L12.11 10.50L13.97 10.50ZM10.74 8.99C9.86 8.99 9.59 8.40 9.59 6.97C9.59 5.56 10.02 4.96 10.72 4.96C11.33 4.96 12.10 5.10 12.10 5.10L12.10 8.78C12.10 8.78 11.40 8.99 10.74 8.99ZM18.56 3.33C16.13 3.33 15.34 4.83 15.34 6.99C15.34 9.14 16.13 10.67 18.56 10.67C21 10.67 21.78 9.14 21.78 6.99C21.78 4.83 21 3.33 18.56 3.33ZM18.56 9.07C17.53 9.07 17.25 8.34 17.25 6.99C17.25 5.63 17.53 4.93 18.56 4.93C19.60 4.93 19.88 5.63 19.88 6.99C19.88 8.34 19.60 9.07 18.56 9.07ZM23.16 13.44L25.03 13.44L25.03 10.56C25.03 10.56 25.68 10.67 26.19 10.67C28.34 10.67 29.37 9.93 29.37 6.94C29.37 4.34 28.46 3.33 26.61 3.33C25.93 3.33 25.02 3.88 25.02 3.88L25.02 3.50L23.16 3.50ZM26.25 5.01C26.99 5.01 27.47 5.53 27.47 6.94C27.47 8.43 27.17 9.04 26.05 9.04C25.66 9.04 25.03 8.96 25.03 8.96L25.03 5.29C25.03 5.29 25.68 5.01 26.25 5.01ZM34.65 5.10L34.65 3.50L32.93 3.50L32.93 1.55L31.05 1.55L31.05 3.50L30.23 3.50L30.23 5.10L31.05 5.10L31.05 8.01C31.05 10.02 31.54 10.67 33.24 10.67C33.73 10.67 34.66 10.46 34.66 10.46L34.58 8.96C34.58 8.96 33.91 8.99 33.52 8.99C32.93 8.99 32.93 8.67 32.93 7.97L32.93 5.10ZM35.87 13.44L37.74 13.44L37.74 10.56C37.74 10.56 38.39 10.67 38.91 10.67C41.05 10.67 42.08 9.93 42.08 6.94C42.08 4.34 41.17 3.33 39.33 3.33C38.64 3.33 37.73 3.88 37.73 3.88L37.73 3.50L35.87 3.50ZM38.96 5.01C39.70 5.01 40.18 5.53 40.18 6.94C40.18 8.43 39.89 9.04 38.77 9.04C38.37 9.04 37.74 8.96 37.74 8.96L37.74 5.29C37.74 5.29 38.39 5.01 38.96 5.01ZM48.85 5.68C48.85 4.05 48.12 3.33 46.30 3.33C44.95 3.33 43.46 3.74 43.46 3.74L43.51 5.04C43.51 5.04 45.22 4.93 46.14 4.93C46.70 4.93 46.97 5.08 46.97 5.68L46.97 6.12L45.47 6.23C43.93 6.34 43.02 6.79 43.02 8.37C43.02 9.86 43.72 10.67 45.19 10.67C46.24 10.67 47.25 10.18 47.25 10.18C47.84 10.57 48.31 10.67 49.25 10.67L49.31 9.25C48.93 9.18 48.87 9.02 48.85 8.60ZM46.97 7.42L46.97 8.92C46.97 8.92 46.20 9.14 45.60 9.14C45.09 9.14 44.91 8.81 44.91 8.32C44.91 7.81 45.21 7.57 45.70 7.53ZM50.05 3.50L51.38 10.50L54.32 10.50L55.12 6.22L55.92 10.50L58.86 10.50L60.19 3.50L58.34 3.50L57.48 8.90L57.15 8.90L56.08 3.64L54.15 3.64L53.09 8.90L52.75 8.90L51.90 3.50Z"></path></g><defs data-v-fde0c5aa=""><linearGradient data-v-fde0c5aa="" gradientTransform="rotate(25)" id="782a14e9-aa34-42a8-bd6d-f7f6cb4583b9" x1="0%" y1="0%" x2="100%" y2="0%"><stop data-v-fde0c5aa="" offset="0%" stop-color="#20484F" stop-opacity="1"></stop><stop data-v-fde0c5aa="" offset="100%" stop-color="#4E9BAB" stop-opacity="1"></stop></linearGradient></defs><g data-v-fde0c5aa="" id="ffb8add4-f326-4592-9d7b-11f3f12d33c4" stroke="none" fill="url(#782a14e9-aa34-42a8-bd6d-f7f6cb4583b9)" transform="matrix(0.7302823576383926,0,0,0.7302823576383926,29.964682282379705,112.01629556970724)"><path d="M37.406 40.596c2.149-.978 4.371-1.99 6.708-2.64 2.294-.638 7.031-1.963 6.162-5.879 2.37-.111 7.473-.306 11.722-.169 2.971.097 10.073-.008 11.877-3.067.46-.782.78-2.098-.31-3.928-.85-1.426-2.244-1.49-3.261-1.536-1.201-.054-2.39-.065-3.804-.065-1.697 0-3.443-.236-5.133-.465l-.314-.042a175.538 175.538 0 0 1-11.105-1.874c-1.46-.294-2.913-.659-4.32-1.012-4.253-1.07-8.657-2.173-13.465-1.315-2.717.485-5.262 1.523-7.724 2.527l-1.152.468c-2.11.848-4.302 1.631-6.42 2.388-.824.294-1.647.588-2.468.886a1 1 0 0 0 .684 1.88c.817-.297 1.636-.59 2.457-.883 2.136-.763 4.346-1.552 6.493-2.415l1.161-.472c2.366-.964 4.812-1.962 7.32-2.41 4.39-.785 8.391.22 12.627 1.285 1.429.36 2.906.73 4.412 1.034 3.809.766 7.588 1.403 11.233 1.895l.314.042c1.754.237 3.568.483 5.4.483 1.387 0 2.55.01 3.712.063 1.035.047 1.375.127 1.635.563.713 1.195.406 1.716.305 1.887-.96 1.627-5.904 2.223-10.089 2.084-4.869-.16-10.81.113-12.65.208-1.406-1.904-3.846-1.988-5.13-1.684l-15.25 2.31a1 1 0 0 0 .3 1.978l15.324-2.325c.305-.068 3-.594 3.658 2.041.44 1.765-1.575 2.713-4.794 3.608-2.43.676-4.725 1.72-6.944 2.73-1.1.501-2.237 1.02-3.363 1.478-1.537.627-3.324 1.316-5.063 1.565-2.978.425-6.109.283-9.138.144-1.37-.062-2.785-.127-4.175-.139-.584-.025-1.004.44-1.008.991s.439 1.004.99 1.01c1.354.011 2.75.074 4.101.136 1.54.07 3.106.142 4.678.142 1.613 0 3.232-.075 4.835-.305 1.964-.28 3.887-1.02 5.535-1.692 1.163-.474 2.32-1 3.437-1.509zM86.239 83.933l-.496-2.413c-2.08-10.111-4.983-20.197-7.542-28.857-.295-.999-.588-1.998-.878-2.998a1 1 0 0 0-1.725-.367l-4.927 5.837a331.57 331.57 0 0 0-1.348-4.954c-1.825-6.389-6.061-6.475-6.241-6.475 0 0-5.86-.018-9.32-.018-3.915 0-6.41 3.26-6.529 3.42L43.42 52.46l-12.878 2.28a1 1 0 0 0-.823 1.062c.018.242.036.561.057.94.309 5.582 1.01 10.888 4.014 11.91 2.83.962 5.823 1.227 8.718 1.484.603.053 1.206.106 1.806.166.24 2.646 1.015 10.831 1.697 13.833a1 1 0 0 0 1.95-.443c-.771-3.393-1.718-14.276-1.728-14.385a1 1 0 0 0-.885-.908c-.883-.098-1.772-.177-2.663-.255-2.778-.247-5.65-.501-8.252-1.386-1.42-.483-2.315-3.89-2.66-10.127l-.004-.076 12.402-2.197a.999.999 0 0 0 .64-.404l4.036-5.666c.02-.026 1.988-2.601 4.914-2.601 3.44 0 9.25.018 9.3.018.12.003 2.949.158 4.339 5.025.32 1.118.837 3.03 1.458 5.368l-5.505.794c-2.611.286-3.766 2.367-4.785 4.203-.29.523-.565 1.017-.862 1.456-.09.135-.191.308-.3.5-.135.24-.419.739-.515.816a1.036 1.036 0 0 0-.167.064c-.088.043-2.172 1.056-3.612 2.016a1 1 0 0 0-.442.906c.022.304.615 7.439 6.148 8.167 3.273.43 5.6.543 6.804.57l.847 9.207a1 1 0 1 0 1.991-.184l-.93-10.109a1.004 1.004 0 0 0-1.02-.907c-.028 0-2.752.056-7.43-.56-3.174-.417-4.1-4.272-4.34-5.756 1.136-.696 2.496-1.373 2.796-1.521.792-.28 1.263-1.11 1.61-1.723.08-.14.15-.267.215-.364.348-.512.657-1.069.955-1.608 1.04-1.874 1.779-3.023 3.288-3.189l5.77-.832 1.284-.185a.998.998 0 0 0 .621-.344l.018-.021 4.628-5.483.358 1.217c2.547 8.622 5.437 18.66 7.5 28.694l.497 2.412a1 1 0 0 0 1.959-.402z"></path></g><!----></svg>