<svg data-v-fde0c5aa="" xmlns="http://www.w3.org/2000/svg" viewBox="0 0 300 300" class="font"><!----><defs data-v-fde0c5aa=""><!----></defs><rect data-v-fde0c5aa="" fill="#EDF2F3" x="0" y="0" width="300px" height="300px" class="logo-background-square"></rect><defs data-v-fde0c5aa=""><linearGradient data-v-fde0c5aa="" gradientTransform="rotate(25)" id="07a07d81-8f35-4a61-bed6-8046bab8b451" x1="0%" y1="0%" x2="100%" y2="0%"><stop data-v-fde0c5aa="" offset="0%" stop-color="#20484F" stop-opacity="1"></stop><stop data-v-fde0c5aa="" offset="100%" stop-color="#4E9BAB" stop-opacity="1"></stop></linearGradient></defs><g data-v-fde0c5aa="" id="59b5287c-24c9-4aa1-bf1b-2bcb00c6ec0a" fill="url(#07a07d81-8f35-4a61-bed6-8046bab8b451)" transform="matrix(3.6801606639742994,0,0,3.6801606639742994,38.49113414093182,123.9812645707336)"><path d="M6.23 5.68C6.23 4.05 5.50 3.33 3.68 3.33C2.34 3.33 0.84 3.74 0.84 3.74L0.90 5.04C0.90 5.04 2.60 4.93 3.53 4.93C4.09 4.93 4.35 5.08 4.35 5.68L4.35 6.12L2.86 6.23C1.32 6.34 0.41 6.79 0.41 8.37C0.41 9.86 1.11 10.67 2.58 10.67C3.63 10.67 4.63 10.18 4.63 10.18C5.22 10.57 5.70 10.67 6.64 10.67L6.69 9.25C6.31 9.18 6.26 9.02 6.23 8.60ZM4.35 7.42L4.35 8.92C4.35 8.92 3.58 9.14 2.98 9.14C2.48 9.14 2.30 8.81 2.30 8.32C2.30 7.81 2.59 7.57 3.08 7.53ZM13.97 0.70L12.10 0.70L12.10 3.53C12.10 3.53 11.10 3.33 10.58 3.33C8.68 3.33 7.69 4.41 7.69 6.97C7.69 9.44 8.30 10.67 10.42 10.67C11.13 10.67 12.11 10.21 12.11 10.21L12.11 10.50L13.97 10.50ZM10.74 8.99C9.86 8.99 9.59 8.40 9.59 6.97C9.59 5.56 10.02 4.96 10.72 4.96C11.33 4.96 12.10 5.10 12.10 5.10L12.10 8.78C12.10 8.78 11.40 8.99 10.74 8.99ZM18.56 3.33C16.13 3.33 15.34 4.83 15.34 6.99C15.34 9.14 16.13 10.67 18.56 10.67C21 10.67 21.78 9.14 21.78 6.99C21.78 4.83 21 3.33 18.56 3.33ZM18.56 9.07C17.53 9.07 17.25 8.34 17.25 6.99C17.25 5.63 17.53 4.93 18.56 4.93C19.60 4.93 19.88 5.63 19.88 6.99C19.88 8.34 19.60 9.07 18.56 9.07ZM23.16 13.44L25.03 13.44L25.03 10.56C25.03 10.56 25.68 10.67 26.19 10.67C28.34 10.67 29.37 9.93 29.37 6.94C29.37 4.34 28.46 3.33 26.61 3.33C25.93 3.33 25.02 3.88 25.02 3.88L25.02 3.50L23.16 3.50ZM26.25 5.01C26.99 5.01 27.47 5.53 27.47 6.94C27.47 8.43 27.17 9.04 26.05 9.04C25.66 9.04 25.03 8.96 25.03 8.96L25.03 5.29C25.03 5.29 25.68 5.01 26.25 5.01ZM34.65 5.10L34.65 3.50L32.93 3.50L32.93 1.55L31.05 1.55L31.05 3.50L30.23 3.50L30.23 5.10L31.05 5.10L31.05 8.01C31.05 10.02 31.54 10.67 33.24 10.67C33.73 10.67 34.66 10.46 34.66 10.46L34.58 8.96C34.58 8.96 33.91 8.99 33.52 8.99C32.93 8.99 32.93 8.67 32.93 7.97L32.93 5.10ZM35.87 13.44L37.74 13.44L37.74 10.56C37.74 10.56 38.39 10.67 38.91 10.67C41.05 10.67 42.08 9.93 42.08 6.94C42.08 4.34 41.17 3.33 39.33 3.33C38.64 3.33 37.73 3.88 37.73 3.88L37.73 3.50L35.87 3.50ZM38.96 5.01C39.70 5.01 40.18 5.53 40.18 6.94C40.18 8.43 39.89 9.04 38.77 9.04C38.37 9.04 37.74 8.96 37.74 8.96L37.74 5.29C37.74 5.29 38.39 5.01 38.96 5.01ZM48.85 5.68C48.85 4.05 48.12 3.33 46.30 3.33C44.95 3.33 43.46 3.74 43.46 3.74L43.51 5.04C43.51 5.04 45.22 4.93 46.14 4.93C46.70 4.93 46.97 5.08 46.97 5.68L46.97 6.12L45.47 6.23C43.93 6.34 43.02 6.79 43.02 8.37C43.02 9.86 43.72 10.67 45.19 10.67C46.24 10.67 47.25 10.18 47.25 10.18C47.84 10.57 48.31 10.67 49.25 10.67L49.31 9.25C48.93 9.18 48.87 9.02 48.85 8.60ZM46.97 7.42L46.97 8.92C46.97 8.92 46.20 9.14 45.60 9.14C45.09 9.14 44.91 8.81 44.91 8.32C44.91 7.81 45.21 7.57 45.70 7.53ZM50.05 3.50L51.38 10.50L54.32 10.50L55.12 6.22L55.92 10.50L58.86 10.50L60.19 3.50L58.34 3.50L57.48 8.90L57.15 8.90L56.08 3.64L54.15 3.64L53.09 8.90L52.75 8.90L51.90 3.50Z"></path></g><!----><!----></svg>